<svg xmlns="http://www.w3.org/2000/svg" viewBox="0 0 1600 1000" width="1600" height="1000">
  <defs>
    <linearGradient id="bgb3" x1="0" y1="0" x2="1" y2="1"><stop offset="0" stop-color="#141518"/><stop offset="1" stop-color="#0a0a0a"/></linearGradient>
    <linearGradient id="jetb3" x1="0" y1="0" x2="1" y2="1">
      <stop offset="0" stop-color="transparent"/><stop offset="0.30" stop-color="#1f6f9e"/><stop offset="0.55" stop-color="#8a8f94"/><stop offset="0.72" stop-color="#8fd0f0"/><stop offset="1" stop-color="transparent"/>
    </linearGradient>
    <radialGradient id="glb3" cx="28%" cy="18%" r="80%"><stop offset="0" stop-color="#8a8f94" stop-opacity="0.22"/><stop offset="1" stop-color="#8a8f94" stop-opacity="0"/></radialGradient>
  </defs>
  <rect width="1600" height="1000" fill="url(#bgb3)"/>
  <rect width="1600" height="1000" fill="url(#glb3)"/>
  <g transform="rotate(-18 800 500)">
    <rect x="-60" y="30" width="824.1123656766115" height="2.1950072773084326" fill="url(#jetb3)"/><rect x="-20" y="196.66666666666666" width="871.7607896619575" height="4.047147978077682" fill="url(#jetb3)"/><rect x="20" y="363.3333333333333" width="840.4789454370491" height="4.959290239068787" fill="url(#jetb3)"/><rect x="60" y="530" width="925.3348441673464" height="3.3949463577167993" fill="url(#jetb3)"/><rect x="100" y="696.6666666666666" width="936.0840950213269" height="2.8737077879355417" fill="url(#jetb3)"/><rect x="140" y="863.3333333333333" width="1163.8048498016055" height="3.8456678182668655" fill="url(#jetb3)"/>
  </g>
  <rect x="16" y="16" width="1568" height="968" fill="none" stroke="#fff" stroke-opacity="0.06" rx="16"/>
  <path d="M20 20 h16 M20 20 v16" stroke="#c0c4cc" stroke-opacity="0.5" stroke-width="2" fill="none"/><path d="M1580 20 h-16 M1580 20 v16" stroke="#c0c4cc" stroke-opacity="0.5" stroke-width="2" fill="none"/><path d="M20 980 h16 M20 980 v-16" stroke="#c0c4cc" stroke-opacity="0.5" stroke-width="2" fill="none"/><path d="M1580 980 h-16 M1580 980 v-16" stroke="#c0c4cc" stroke-opacity="0.5" stroke-width="2" fill="none"/>
  <g transform="translate(1380 790) scale(1.8)" fill="none" stroke="#fff" stroke-width="6" stroke-linecap="round" stroke-linejoin="round" opacity="0.08">
    <path d="M40 120 q-6 -46 16 -70 q10 -10 8 -34 q14 4 20 30 q10 -2 20 0 q6 -26 20 -30 q-2 24 8 34 q22 24 16 70 z"/>
    <circle cx="66" cy="96" r="4" fill="#fff" stroke="none"/>
    <path d="M96 116 l60 -34 M150 78 l22 -6 -6 22"/>
  </g>
  <text x="60" y="92" font-family="Archivo, Segoe UI, sans-serif" font-size="26" font-weight="700" letter-spacing="8" fill="#c0c4cc">BEFORE</text>
  <text x="800" y="500" text-anchor="middle" font-family="Archivo, Segoe UI, sans-serif" font-size="70" font-weight="800" fill="#fff" letter-spacing="-2">Concrete flatwork</text>
</svg>
