<svg xmlns="http://www.w3.org/2000/svg" viewBox="0 0 1200 1500" width="1200" height="1500">
  <defs>
    <linearGradient id="bgg0" x1="0" y1="0" x2="1" y2="1"><stop offset="0" stop-color="#141518"/><stop offset="1" stop-color="#0a0a0a"/></linearGradient>
    <linearGradient id="jetg0" x1="0" y1="0" x2="1" y2="1">
      <stop offset="0" stop-color="transparent"/><stop offset="0.30" stop-color="#1f6f9e"/><stop offset="0.55" stop-color="#8a8f94"/><stop offset="0.72" stop-color="#8fd0f0"/><stop offset="1" stop-color="transparent"/>
    </linearGradient>
    <radialGradient id="glg0" cx="28%" cy="18%" r="80%"><stop offset="0" stop-color="#8a8f94" stop-opacity="0.22"/><stop offset="1" stop-color="#8a8f94" stop-opacity="0"/></radialGradient>
  </defs>
  <rect width="1200" height="1500" fill="url(#bgg0)"/>
  <rect width="1200" height="1500" fill="url(#glg0)"/>
  <g transform="rotate(-18 600 750)">
    <rect x="-60" y="30" width="846.3169507768001" height="4.890125626975386" fill="url(#jetg0)"/><rect x="-20" y="280" width="934.072367532796" height="4.948647408530508" fill="url(#jetg0)"/><rect x="20" y="530" width="670.2650885571124" height="3.9952432354604257" fill="url(#jetg0)"/><rect x="60" y="780" width="971.2697002050336" height="3.730998635240118" fill="url(#jetg0)"/><rect x="100" y="1030" width="794.0977018004172" height="3.637724816723734" fill="url(#jetg0)"/><rect x="140" y="1280" width="976.1492811547629" height="4.639906513645466" fill="url(#jetg0)"/>
  </g>
  <rect x="16" y="16" width="1168" height="1468" fill="none" stroke="#fff" stroke-opacity="0.06" rx="16"/>
  <path d="M20 20 h16 M20 20 v16" stroke="#c0c4cc" stroke-opacity="0.5" stroke-width="2" fill="none"/><path d="M1180 20 h-16 M1180 20 v16" stroke="#c0c4cc" stroke-opacity="0.5" stroke-width="2" fill="none"/><path d="M20 1480 h16 M20 1480 v-16" stroke="#c0c4cc" stroke-opacity="0.5" stroke-width="2" fill="none"/><path d="M1180 1480 h-16 M1180 1480 v-16" stroke="#c0c4cc" stroke-opacity="0.5" stroke-width="2" fill="none"/>
  <g transform="translate(980 1290) scale(1.8)" fill="none" stroke="#fff" stroke-width="6" stroke-linecap="round" stroke-linejoin="round" opacity="0.08">
    <path d="M40 120 q-6 -46 16 -70 q10 -10 8 -34 q14 4 20 30 q10 -2 20 0 q6 -26 20 -30 q-2 24 8 34 q22 24 16 70 z"/>
    <circle cx="66" cy="96" r="4" fill="#fff" stroke="none"/>
    <path d="M96 116 l60 -34 M150 78 l22 -6 -6 22"/>
  </g>
  
  <text x="600" y="750" text-anchor="middle" font-family="Archivo, Segoe UI, sans-serif" font-size="84" font-weight="800" fill="#fff" letter-spacing="-2">01</text>
</svg>
