<svg xmlns="http://www.w3.org/2000/svg" viewBox="0 0 1200 900" width="1200" height="900">
  <defs>
    <linearGradient id="bgg1" x1="0" y1="0" x2="1" y2="1"><stop offset="0" stop-color="#141518"/><stop offset="1" stop-color="#0a0a0a"/></linearGradient>
    <linearGradient id="jetg1" x1="0" y1="0" x2="1" y2="1">
      <stop offset="0" stop-color="transparent"/><stop offset="0.30" stop-color="#1f6f9e"/><stop offset="0.55" stop-color="#3b9fd4"/><stop offset="0.72" stop-color="#8fd0f0"/><stop offset="1" stop-color="transparent"/>
    </linearGradient>
    <radialGradient id="glg1" cx="28%" cy="18%" r="80%"><stop offset="0" stop-color="#3b9fd4" stop-opacity="0.5"/><stop offset="1" stop-color="#3b9fd4" stop-opacity="0"/></radialGradient>
  </defs>
  <rect width="1200" height="900" fill="url(#bgg1)"/>
  <rect width="1200" height="900" fill="url(#glg1)"/>
  <g transform="rotate(-18 600 450)">
    <rect x="-60" y="30" width="841.438445697906" height="4.685536927548256" fill="url(#jetg1)"/><rect x="-20" y="180" width="606.0768929481162" height="3.5289486857646044" fill="url(#jetg1)"/><rect x="20" y="330" width="727.8550970838922" height="2.38453682688212" fill="url(#jetg1)"/><rect x="60" y="480" width="840.0850807696473" height="3.0766633682407956" fill="url(#jetg1)"/><rect x="100" y="630" width="891.4717627903066" height="4.910881360476681" fill="url(#jetg1)"/><rect x="140" y="780" width="923.1155095830338" height="3.191441605245012" fill="url(#jetg1)"/>
  </g>
  <rect x="16" y="16" width="1168" height="868" fill="none" stroke="#fff" stroke-opacity="0.06" rx="16"/>
  <path d="M20 20 h16 M20 20 v16" stroke="#c0c4cc" stroke-opacity="0.5" stroke-width="2" fill="none"/><path d="M1180 20 h-16 M1180 20 v16" stroke="#c0c4cc" stroke-opacity="0.5" stroke-width="2" fill="none"/><path d="M20 880 h16 M20 880 v-16" stroke="#c0c4cc" stroke-opacity="0.5" stroke-width="2" fill="none"/><path d="M1180 880 h-16 M1180 880 v-16" stroke="#c0c4cc" stroke-opacity="0.5" stroke-width="2" fill="none"/>
  <g transform="translate(980 690) scale(1.8)" fill="none" stroke="#fff" stroke-width="6" stroke-linecap="round" stroke-linejoin="round" opacity="0.16">
    <path d="M40 120 q-6 -46 16 -70 q10 -10 8 -34 q14 4 20 30 q10 -2 20 0 q6 -26 20 -30 q-2 24 8 34 q22 24 16 70 z"/>
    <circle cx="66" cy="96" r="4" fill="#fff" stroke="none"/>
    <path d="M96 116 l60 -34 M150 78 l22 -6 -6 22"/>
  </g>
  
  <text x="600" y="450" text-anchor="middle" font-family="Archivo, Segoe UI, sans-serif" font-size="84" font-weight="800" fill="#fff" letter-spacing="-2">02</text>
</svg>
