<svg xmlns="http://www.w3.org/2000/svg" viewBox="0 0 1400 1000" width="1400" height="1000">
  <rect width="1400" height="1000" fill="#141518"/>
  <g stroke="#fff" stroke-opacity="0.08" fill="none">
    <line x1="0" y1="0" x2="1400" y2="0"/><line x1="0" y1="125" x2="1400" y2="125"/><line x1="0" y1="250" x2="1400" y2="250"/><line x1="0" y1="375" x2="1400" y2="375"/><line x1="0" y1="500" x2="1400" y2="500"/><line x1="0" y1="625" x2="1400" y2="625"/><line x1="0" y1="750" x2="1400" y2="750"/><line x1="0" y1="875" x2="1400" y2="875"/><line x1="0" y1="1000" x2="1400" y2="1000"/>
    <line x1="0" y1="0" x2="0" y2="1000"/><line x1="125" y1="0" x2="125" y2="1000"/><line x1="250" y1="0" x2="250" y2="1000"/><line x1="375" y1="0" x2="375" y2="1000"/><line x1="500" y1="0" x2="500" y2="1000"/><line x1="625" y1="0" x2="625" y2="1000"/><line x1="750" y1="0" x2="750" y2="1000"/><line x1="875" y1="0" x2="875" y2="1000"/><line x1="1000" y1="0" x2="1000" y2="1000"/><line x1="1125" y1="0" x2="1125" y2="1000"/><line x1="1250" y1="0" x2="1250" y2="1000"/><line x1="1375" y1="0" x2="1375" y2="1000"/>
  </g>
  <circle cx="700" cy="500" r="14" fill="#3b9fd4"/>
  <circle cx="700" cy="500" r="80" fill="none" stroke="#3b9fd4" stroke-opacity="0.5"/>
  <circle cx="700" cy="500" r="170" fill="none" stroke="#3b9fd4" stroke-opacity="0.28"/>
  <circle cx="700" cy="500" r="270" fill="none" stroke="#3b9fd4" stroke-opacity="0.15"/>
  <text x="700" y="470" text-anchor="middle" font-family="Archivo, sans-serif" font-size="30" font-weight="800" fill="#fff">Lake Stevens, WA</text>
  <text x="700" y="790" text-anchor="middle" font-family="Archivo, sans-serif" font-size="20" letter-spacing="4" fill="#c0c4cc">SNOHOMISH &amp; KING COUNTY</text>
</svg>
