<svg xmlns="http://www.w3.org/2000/svg" viewBox="0 0 900 900" width="900" height="900" role="img">
  
  <defs>
    <linearGradient id="bg-t2" x1="0" y1="0" x2="1" y2="1">
      <stop offset="0" stop-color="#141417"/>
      <stop offset="1" stop-color="#0a0a0a"/>
    </linearGradient>
    <radialGradient id="glow-t2" cx="30%" cy="18%" r="75%">
      <stop offset="0" stop-color="#3b9fd4" stop-opacity="0.55"/>
      <stop offset="0.45" stop-color="#3b9fd4" stop-opacity="0.12"/>
      <stop offset="1" stop-color="#3b9fd4" stop-opacity="0"/>
    </radialGradient>
    <linearGradient id="spray-t2" x1="0" y1="0" x2="1" y2="1">
      <stop offset="0" stop-color="#7cc5ee" stop-opacity="0.9"/>
      <stop offset="1" stop-color="#3b9fd4" stop-opacity="0"/>
    </linearGradient>
    <filter id="soft-t2"><feGaussianBlur stdDeviation="14"/></filter>
  </defs>
  <rect width="900" height="900" fill="url(#bg-t2)"/>
  <rect width="900" height="900" fill="url(#glow-t2)"/>
  <rect x="7.947412061895207" y="4.170113340166335" width="661.1016549870723" height="3.0648946724745896" fill="url(#spray-t2)" transform="rotate(-18 450 450)"/><rect x="-20.76017582243145" y="130.36898838782957" width="419.83721948350353" height="4.088555285063736" fill="url(#spray-t2)" transform="rotate(-18 450 450)"/><rect x="-10.213313235357415" y="278.96990840283974" width="457.91493107877216" height="4.286723707062267" fill="url(#spray-t2)" transform="rotate(-18 450 450)"/><rect x="-3.111306796844744" y="425.312055715095" width="535.5478153427446" height="2.7429457448357617" fill="url(#spray-t2)" transform="rotate(-18 450 450)"/><rect x="-14.983332906808577" y="528.4976215413244" width="651.8258456338738" height="3.3581643050106056" fill="url(#spray-t2)" transform="rotate(-18 450 450)"/><rect x="15.781262130217215" y="668.594780099113" width="751.9326095614784" height="4.271972241777446" fill="url(#spray-t2)" transform="rotate(-18 450 450)"/><rect x="1.8704852840192814" y="774.004866559204" width="546.1679177720516" height="3.8679678490234655" fill="url(#spray-t2)" transform="rotate(-18 450 450)"/>
  <rect width="900" height="900" fill="url(#grain)" opacity="0.05"/>
  <filter id="grain"><feTurbulence type="fractalNoise" baseFrequency="0.9" numOctaves="2" stitchTiles="stitch"/><feColorMatrix type="saturate" values="0"/></filter>
  <rect x="16" y="16" width="868" height="868" fill="none" stroke="#ffffff" stroke-opacity="0.08" rx="18"/>
  
      <circle cx="450" cy="380" r="150" fill="#ffffff" fill-opacity="0.06" stroke="#ffffff" stroke-opacity="0.12"/>
      <text x="450" y="405" text-anchor="middle" font-family="Sora, sans-serif" font-size="120" font-weight="700" fill="#ffffff">O</text>
      <text x="450" y="640" text-anchor="middle" font-family="Sora, sans-serif" font-size="40" font-weight="700" fill="#ffffff">Olson Team</text>
      <text x="450" y="686" text-anchor="middle" font-family="Inter, sans-serif" font-size="20" letter-spacing="4" fill="#c0c0c0">SOFT WASH TECH</text>
    
</svg>
